<svg width="60" height="60" viewBox="0 0 60 60" fill="none" xmlns="http://www.w3.org/2000/svg">
<path fill-rule="evenodd" clip-rule="evenodd" d="M33.3366 26.6638C33.3366 27.4002 30.7396 29.9971 30.0033 29.9971C29.2669 29.9971 26.6699 27.4002 26.6699 26.6638V22.6638C26.6699 23.4002 29.2669 25.9971 30.0033 25.9971C30.7396 25.9971 33.3366 23.4002 33.3366 22.6638V26.6638Z" fill="white"/>
<path fill-rule="evenodd" clip-rule="evenodd" d="M33.3366 20.6638C33.3366 21.4002 30.7396 23.9971 30.0033 23.9971C29.2669 23.9971 26.6699 21.4002 26.6699 20.6638V16.6638C26.6699 17.4001 29.2669 19.9971 30.0033 19.9971C30.7396 19.9971 33.3366 17.4001 33.3366 16.6638V20.6638Z" fill="white"/>
<path d="M33.3366 12.6638C33.3366 12.6638 33.3366 13.9274 33.3366 14.6638C33.3366 15.4001 30.7396 17.9971 30.0033 17.9971C29.2669 17.9971 26.6699 15.4001 26.6699 14.6638V12.6638C26.6699 11.9274 27.2669 11.3304 28.0033 11.3304H32.0033C32.7396 11.3304 33.3366 11.9274 33.3366 12.6638Z" fill="white"/>
</svg>
