<svg width="60" height="60" viewBox="0 0 60 60" fill="none" xmlns="http://www.w3.org/2000/svg">
<path d="M22 10C22.7364 10 23.3333 10.597 23.3333 11.3333V32C23.3333 32.7364 23.9303 33.3333 24.6667 33.3333H27.3333C28.0697 33.3333 28.6667 33.9303 28.6667 34.6667V48.6667C28.6667 49.4031 28.0697 50 27.3333 50H16.6667C12.9848 50 10 47.0152 10 43.3333V16.6667C10 12.9848 12.9848 10 16.6667 10H22Z" fill="white"/>
<path d="M22 10C22.7363 10 23.3328 10.5968 23.333 11.333V32C23.333 32.7364 23.9306 33.333 24.667 33.333H27.333C28.0694 33.333 28.667 33.9306 28.667 34.667V48.667C28.6668 49.4032 28.0693 50 27.333 50H16.667C14.8138 50 13.1369 49.2439 11.9284 48.0233C11.0238 47.1097 11.8728 45.6712 12.551 44.5789C12.8356 44.1204 13 43.5795 13 43V34C13 32.687 12.1565 31.5711 10.9819 31.1644C10.46 30.9837 10 30.5523 10 30C10 29.4477 10.46 29.0163 10.9819 28.8356C12.1565 28.4289 13 27.313 13 26V17C13 16.4205 12.8357 15.8794 12.5511 15.4208C11.873 14.3282 11.0241 12.8891 11.9291 11.9756C13.1376 10.7556 14.8143 10 16.667 10H22Z" fill="white"/>
</svg>
