<svg width="60" height="60" viewBox="0 0 60 60" fill="none" xmlns="http://www.w3.org/2000/svg">
<path fill-rule="evenodd" clip-rule="evenodd" d="M33.3366 14.6634C33.3366 13.927 30.7396 11.3301 30.0033 11.3301C29.2669 11.3301 26.6699 13.927 26.6699 14.6634V18.6634C26.6699 17.927 29.2669 15.3301 30.0033 15.3301C30.7396 15.3301 33.3366 17.927 33.3366 18.6634V14.6634Z" fill="white"/>
<path fill-rule="evenodd" clip-rule="evenodd" d="M33.3366 20.6634C33.3366 19.927 30.7396 17.3301 30.0033 17.3301C29.2669 17.3301 26.6699 19.927 26.6699 20.6634V24.6634C26.6699 23.9271 29.2669 21.3301 30.0033 21.3301C30.7396 21.3301 33.3366 23.9271 33.3366 24.6634V20.6634Z" fill="white"/>
<path d="M33.3366 28.6634C33.3366 28.6634 33.3366 27.3998 33.3366 26.6634C33.3366 25.9271 30.7396 23.3301 30.0033 23.3301C29.2669 23.3301 26.6699 25.9271 26.6699 26.6634V28.6634C26.6699 29.3998 27.2669 29.9968 28.0033 29.9968H32.0033C32.7396 29.9968 33.3366 29.3998 33.3366 28.6634Z" fill="white"/>
</svg>
